# xmcd
#
# Track frame offsets: 
#        151
#        14174
#        26982
#        39453
#        52855
#        65903
#        78637
#        91997
#        104685
#        117384
#        130708
#        144383
#        158237
#        171350
#        185404
#        199839
#        214029
#        226048
#        240339
#        254697
#        269423
#
# Disc length: 3796 seconds
#
# Revision: 0
# Processed by: cddbd v1.5.2PL0 Copyright (c) Steve Scherf et al.
# Submitted via: ExactAudioCopy v0.95b4
#
DISCID=340ed215
DTITLE=Blind Lemon Jefferson - Texas Blues - Box - CD4
DYEAR=2007
DGENRE=Blues
TTITLE0=Maltese Cat Blues
TTITLE1=D B Blues
TTITLE2=Eagle Eyed Mama
TTITLE3=Dynamite Blues
TTITLE4=Disgusted Blues
TTITLE5=Competition Bed Blues
TTITLE6=Sad News Blues
TTITLE7=Oil Well Blues
TTITLE8=Tin Cup Blues
TTITLE9=Big Night Blues
TTITLE10=Empty House Blues
TTITLE11=Saturday Night Spender Blues
TTITLE12=That Black Snake Moan No 2
TTITLE13=Peach Orchard Mama
TTITLE14=Big Night Blues
TTITLE15=Bed Springs Blues
TTITLE16=Yo Yo Blues
TTITLE17=Mosquito Moan
TTITLE18=Southern Woman Blues
TTITLE19=Bakershop Blues
TTITLE20=Pneumonia Blues
EXTD=
EXTT0=
EXTT1=
EXTT2=
EXTT3=
EXTT4=
EXTT5=
EXTT6=
EXTT7=
EXTT8=
EXTT9=
EXTT10=
EXTT11=
EXTT12=
EXTT13=
EXTT14=
EXTT15=
EXTT16=
EXTT17=
EXTT18=
EXTT19=
EXTT20=
PLAYORDER=
